<?xml version="1.0" standalone="no"?>
<!DOCTYPE svg PUBLIC "-//W3C//DTD SVG 20010904//EN"
 "http://www.w3.org/TR/2001/REC-SVG-20010904/DTD/svg10.dtd">
<svg version="1.0" xmlns="http://www.w3.org/2000/svg"
 width="115.000000pt" height="130.000000pt" viewBox="0 0 115.000000 130.000000"
 preserveAspectRatio="xMidYMid meet">

<g transform="translate(0.000000,130.000000) scale(0.100000,-0.100000)"
fill="#000000" stroke="none">
<path d="M852 1281 c-67 -23 -143 -96 -173 -165 -44 -102 -37 -193 27 -352 19
-46 34 -88 34 -94 0 -5 -17 -10 -37 -10 -70 0 -133 -62 -133 -131 0 -63 59
-119 125 -119 46 0 73 14 107 54 l27 31 33 -31 c96 -92 217 -85 268 15 27 53
27 126 1 141 -37 19 -48 12 -56 -36 -9 -65 -44 -98 -93 -91 -51 9 -142 99
-142 142 0 16 -20 88 -45 160 -63 182 -60 272 13 348 38 41 74 57 126 57 37 0
48 -5 66 -27 59 -76 -44 -213 -159 -213 -31 0 -33 -2 -27 -27 8 -32 31 -53 59
-53 72 0 179 75 219 154 32 62 29 144 -6 190 -52 69 -141 91 -234 57z m-118
-707 c21 -8 20 -43 -1 -66 -29 -32 -73 -16 -73 27 0 38 33 55 74 39z"/>
<path d="M174 1266 c-141 -61 -209 -251 -154 -428 42 -135 163 -218 212 -144
14 20 9 56 -7 56 -62 0 -115 78 -123 181 -10 149 57 259 158 259 149 0 207
-221 119 -454 -27 -73 -109 -162 -157 -172 -31 -6 -33 -9 -30 -42 3 -37 8 -41
78 -66 41 -15 90 -64 90 -92 0 -5 -25 -20 -55 -33 -141 -61 -192 -215 -100
-300 35 -32 40 -33 97 -29 56 4 64 8 99 45 41 44 56 86 66 180 6 60 7 62 36
65 39 4 77 51 60 76 -8 13 -23 17 -59 15 l-49 -2 -25 52 c-14 28 -39 61 -56
72 l-31 21 44 49 c181 204 172 583 -16 682 -51 27 -146 31 -197 9z m199 -1038
c-11 -95 -40 -143 -84 -136 -37 5 -48 51 -24 96 17 30 83 81 107 82 3 0 4 -19
1 -42z"/>
</g>
</svg>
